<svg width="106" height="116" viewBox="0 0 106 116" fill="none" xmlns="http://www.w3.org/2000/svg">
<path d="M69.1237 90.7666V81.2329C69.1237 81.037 69.256 80.8411 69.4545 80.7105L105.571 60.9246C105.703 60.8593 105.769 60.7287 105.769 60.6634V46.5587L69.8514 66.2792C69.5868 66.4098 69.1899 66.2139 69.1899 65.8874V56.3537C69.1899 56.2231 69.256 56.0272 69.3883 55.9619L104.777 36.9596C105.306 36.6984 105.637 36.176 105.637 35.5884V34.5436C105.637 28.7319 102.528 25.7934 97.4347 22.9202L61.0538 2.15489C55.9605 -0.718297 49.6765 -0.718297 44.5832 2.15489L8.20224 22.9202C3.10891 25.7934 0 31.148 0 36.9596V78.425C0 84.2366 3.10891 89.5912 8.20224 92.4644L44.5832 113.23C49.6765 116.103 55.9605 116.103 60.9876 113.23L97.3685 93.6398C102.462 90.7666 105.571 85.412 105.571 79.6004V71.1767L69.9175 91.2237C69.5868 91.4849 69.1237 91.2237 69.1237 90.7666Z" fill="#00B3A0"/>
</svg>
