<svg width="545" height="224" viewBox="0 0 545 224" fill="none" xmlns="http://www.w3.org/2000/svg">
<path d="M267.286 41.3378H295.466V89.3726C298.597 86.5261 301.515 84.5336 304.219 83.395C307.066 82.2563 311.264 81.687 316.815 81.687H333.894C339.872 87.5224 344.569 95.0656 347.984 104.317C351.4 113.568 353.108 123.744 353.108 134.846C353.108 158.614 345.992 177.258 331.759 190.779H311.478C304.504 190.779 298.669 188.146 293.972 182.88L290.129 190.779H267.286V41.3378ZM295.68 168.363H316.175C321.441 159.397 324.074 148.509 324.074 135.699C324.074 122.89 321.369 112.358 315.961 104.103H295.68V168.363Z" fill="black"/>
<path d="M366.718 130.789V81.687H395.112V131.003C395.112 143.385 397.602 153.704 402.584 161.959H415.18C419.876 153.846 422.225 143.527 422.225 131.003V81.687H450.619V129.295C450.619 139.969 449.195 149.363 446.349 157.475C443.645 165.588 439.161 174.768 432.899 185.015L418.595 208.285C416.034 212.697 413.329 215.971 410.483 218.106C407.636 220.241 403.936 221.806 399.382 222.803H365.65V200.386H388.707C391.696 199.532 394.187 198.038 396.179 195.903C398.172 193.768 400.235 190.708 402.37 186.723L403.651 184.375H388.921C382.089 178.824 376.681 171.352 372.696 161.959C368.71 152.423 366.718 142.033 366.718 130.789Z" fill="black"/>
<path d="M496.445 41.3378V190.779H468.265V41.3378H496.445Z" fill="black"/>
<path d="M514.116 159.183H544.859V190.779H514.116V159.183Z" fill="black"/>
<g filter="url(#filter0_i_227_3)">
<rect x="0.141357" y="0.80838" width="222.383" height="222.383" rx="111.192" fill="#894CEA"/>
</g>
<path d="M48.842 89.0985C49.7885 78.2802 59.3257 70.2775 70.144 71.224L155.052 78.6525C158.193 78.9273 160.517 81.6964 160.242 84.8374L160.09 86.5733C159.266 95.9964 150.959 102.967 141.535 102.143L53.3106 94.424C50.6061 94.1873 48.6054 91.803 48.842 89.0985Z" fill="white"/>
<path d="M61.1312 144.4C62.0777 133.582 71.6149 125.58 82.4332 126.526L168.132 134.024C170.836 134.26 172.837 136.645 172.6 139.349C171.654 150.167 162.117 158.17 151.298 157.224L65.5998 149.726C62.8952 149.489 60.8946 147.105 61.1312 144.4Z" fill="white"/>
<defs>
<filter id="filter0_i_227_3" x="0.141357" y="0.80838" width="222.383" height="222.383" filterUnits="userSpaceOnUse" color-interpolation-filters="sRGB">
<feFlood flood-opacity="0" result="BackgroundImageFix"/>
<feBlend mode="normal" in="SourceGraphic" in2="BackgroundImageFix" result="shape"/>
<feColorMatrix in="SourceAlpha" type="matrix" values="0 0 0 0 0 0 0 0 0 0 0 0 0 0 0 0 0 0 127 0" result="hardAlpha"/>
<feMorphology radius="17.7907" operator="dilate" in="SourceAlpha" result="effect1_innerShadow_227_3"/>
<feOffset dx="-31.1337" dy="13.343"/>
<feGaussianBlur stdDeviation="8.89533"/>
<feComposite in2="hardAlpha" operator="arithmetic" k2="-1" k3="1"/>
<feColorMatrix type="matrix" values="0 0 0 0 0.681486 0 0 0 0 0.646389 0 0 0 0 0.745833 0 0 0 0.2 0"/>
<feBlend mode="normal" in2="shape" result="effect1_innerShadow_227_3"/>
</filter>
</defs>
</svg>
