<svg width="187" height="45" viewBox="0 0 187 45" fill="none" xmlns="http://www.w3.org/2000/svg">
<path fill-rule="evenodd" clip-rule="evenodd" d="M155.719 17.5467C158.235 17.5467 161.433 18.6967 161.433 21.6298C161.433 24.563 158.207 25.7129 155.719 25.7129C154.246 25.7129 152.692 25.3692 151.527 24.4359C150.658 23.7401 150.079 22.7506 150.079 21.6277C150.079 20.5049 150.658 19.5174 151.527 18.8196C152.69 17.8863 154.246 17.5426 155.719 17.5426V17.5467ZM161.112 28.7044H164.79V14.5532H161.112V16.1281L160.947 15.9697C159.632 14.7073 157.514 14.1865 155.719 14.1865C153.328 14.1865 150.889 14.8136 149.065 16.3989C147.519 17.7405 146.642 19.5966 146.642 21.6298C146.642 23.663 147.519 25.5191 149.065 26.8628C150.889 28.4481 153.328 29.0731 155.719 29.0731C157.801 29.0731 159.363 28.5002 160.953 27.2149L161.112 27.0878V28.7085V28.7044ZM130.19 21.6256C130.19 18.6779 133.377 17.5426 135.903 17.5426C137.377 17.5426 138.931 17.8863 140.095 18.8196C140.964 19.5154 141.543 20.507 141.543 21.6277C141.543 22.7485 140.964 23.738 140.095 24.4359C138.933 25.3692 137.377 25.7129 135.903 25.7129C133.426 25.7129 130.19 24.5234 130.19 21.6298V21.6256ZM130.511 14.5532H126.833V33.5811H130.511V27.3649L130.663 27.4711C132.115 28.494 134.126 29.0731 135.901 29.0731C138.292 29.0731 140.732 28.4481 142.556 26.8628C144.101 25.5212 144.978 23.6651 144.978 21.6298C144.978 19.5945 144.101 17.7405 142.556 16.3989C140.732 14.8136 138.292 14.1865 135.901 14.1865C134.166 14.1865 132.094 14.7323 130.661 15.7218L130.509 15.8281V14.5532H130.511ZM62.6803 14.5532H59V28.7085H62.6803V21.3757C62.6803 16.4551 70.0092 15.851 70.0092 21.1111V28.7085H73.6894V21.4381C73.6894 16.0239 81.0669 15.6989 81.0669 21.2402V28.7085H84.7472V20.8278C84.7472 16.9613 82.1577 14.1886 78.1815 14.1886C75.9978 14.1886 73.9579 14.8927 72.4909 16.5322L72.4148 16.6176L72.3429 16.528C71.102 14.974 69.1002 14.1886 67.1237 14.1886C65.5531 14.1886 63.8979 14.6761 62.8494 15.8885L62.6803 16.0864V14.5553V14.5532ZM101.652 21.6298C101.652 22.7506 101.073 23.7401 100.204 24.438C99.0393 25.3712 97.4855 25.715 96.0122 25.715C94.5388 25.715 92.983 25.3879 91.8182 24.4671C90.9261 23.763 90.3702 22.7693 90.3702 21.6319C90.3702 20.4945 90.9283 19.5008 91.8182 18.7966C92.983 17.8759 94.5472 17.5488 96.0122 17.5488C97.4771 17.5488 99.0393 17.8925 100.204 18.8258C101.073 19.5216 101.652 20.5132 101.652 21.634V21.6298ZM96.0122 14.1907C93.6214 14.1907 91.1819 14.8157 89.3555 16.3989C87.8103 17.7405 86.933 19.5987 86.933 21.634C86.933 23.6693 87.7828 25.5212 89.3217 26.867C91.1523 28.4669 93.6129 29.0772 96.0122 29.0772C98.4114 29.0772 100.842 28.4523 102.667 26.867C104.212 25.5254 105.089 23.6693 105.089 21.634C105.089 19.5987 104.212 17.7446 102.667 16.4031C100.842 14.8177 98.403 14.1907 96.0122 14.1907ZM110.955 14.5573H107.275V28.7085H110.955V22.1923C110.955 16.0885 120.721 15.7218 120.721 21.8506V28.7085H124.402V21.4861C124.402 17.0301 121.203 14.1886 116.741 14.1886C114.748 14.1886 112.585 14.8781 111.12 16.2364L110.957 16.3885V14.5553L110.955 14.5573ZM170.087 33.5853H174.006L185.366 14.5573H181.441L175.763 24.0651L169.603 14.5573H165.225L173.658 27.5732L170.085 33.5853H170.087Z" fill="#0A0032"/>
<path d="M20.416 17.408V16.2818C20.416 15.5834 20.5991 14.8966 20.9564 14.2913C21.3108 13.686 21.8216 13.1825 22.4388 12.8304L23.685 12.1233L31.2683 7.80753L31.6079 7.61546C31.912 7.44086 32.2398 7.3099 32.5824 7.21969C32.922 7.12947 33.2763 7.08582 33.6277 7.08582C33.9791 7.08582 34.3335 7.12947 34.6731 7.21969C35.0127 7.3099 35.3405 7.44377 35.6476 7.61546L35.9872 7.80753L44.8137 12.8304C45.4279 13.1796 45.9388 13.6831 46.2961 14.2913C46.6505 14.8966 46.8336 15.5834 46.8336 16.2818V26.7146C46.8336 27.4131 46.6505 28.0999 46.2932 28.7052C45.9388 29.3105 45.4279 29.8139 44.8137 30.1631L35.6446 35.381C35.0304 35.7302 34.3335 35.9135 33.6248 35.9135C32.9161 35.9135 32.2192 35.7302 31.6049 35.381L30.1284 34.54L31.6138 33.696C32.857 32.9889 33.8876 31.9703 34.6081 30.7481C35.3287 29.52 35.7066 28.1319 35.7066 26.7146V25.9434C35.7066 24.8172 34.7765 23.9035 33.6336 23.9035C32.4908 23.9035 31.5606 24.8143 31.5606 25.9405V26.7117C31.5606 27.4102 31.3746 28.0969 31.0202 28.7023L30.97 28.7896C30.6363 29.3279 30.1757 29.7819 29.6294 30.1108L20.289 35.4246C19.6955 35.7448 19.031 35.9077 18.3548 35.9077C17.6461 35.9077 16.9492 35.7244 16.3349 35.3752L7.08023 30.1108C6.53098 29.779 6.07031 29.3279 5.73662 28.7866L5.68346 28.6993C5.3291 28.094 5.14306 27.4072 5.14306 26.7088V16.2847C5.14306 15.5863 5.3291 14.8995 5.68346 14.2942L5.73662 14.2069C6.08803 13.6394 6.57822 13.168 7.16587 12.8333L15.9924 7.81044H15.9954L16.3349 7.61837C16.6391 7.44377 16.9669 7.31281 17.3094 7.2226C17.649 7.13238 18.0034 7.08873 18.3548 7.08873C18.7062 7.08873 19.0606 7.13238 19.4002 7.2226C19.7427 7.31281 20.0675 7.44668 20.3747 7.61837L20.7143 7.81044L21.8512 8.45649L20.7083 9.10545L20.3687 9.30043C19.1255 10.0076 18.092 11.0261 17.3744 12.2513C16.6568 13.4794 16.2759 14.8675 16.2759 16.2847V17.411C16.2759 18.5372 17.2061 19.451 18.3459 19.451C19.4858 19.451 20.419 18.5372 20.419 17.411L20.416 17.408ZM31.5075 3.27646C30.8165 3.4598 30.152 3.73044 29.5319 4.08257L28.1824 4.85084L25.9883 6.1022L22.4447 4.08548C21.8246 3.73335 21.1602 3.4598 20.4692 3.27937C19.7811 3.09312 19.0694 3 18.3518 3C17.6343 3 16.9226 3.09312 16.2345 3.27646C15.5435 3.45689 14.8791 3.73044 14.259 4.08257L5.43246 9.10545L5.09286 9.30043C3.84965 10.0076 2.81905 11.0261 2.09852 12.2513C1.37798 13.4765 1 14.8675 1 16.2847V26.7175C1 28.1348 1.37798 29.5258 2.09852 30.751C2.8161 31.9761 3.8467 32.9947 5.08991 33.7019L14.259 38.9197C15.5052 39.6298 16.9137 40.0023 18.3518 40.0023C19.6512 40.0023 20.9298 39.6967 22.0815 39.1118H22.1051L25.9883 36.903L29.5349 38.9197C30.7781 39.6298 32.1896 40.0023 33.6277 40.0023C35.0658 40.0023 36.4744 39.6298 37.7206 38.9197L46.8897 33.7019C48.1329 32.9947 49.1664 31.9761 49.884 30.751L50.0789 30.4163V30.393C50.6695 29.2581 50.9825 27.998 50.9825 26.7175V16.2847C50.9825 15.0043 50.6725 13.7442 50.0789 12.6092V12.586L49.884 12.2513C49.1664 11.0261 48.1329 10.0076 46.8897 9.30043L46.5501 9.10545L37.7176 4.08257C37.0975 3.73044 36.4331 3.45689 35.745 3.27646C35.054 3.09312 34.3424 3 33.6248 3C32.9072 3 32.1985 3.09312 31.5075 3.27646Z" fill="url(#paint0_linear_50_342)"/>
<defs>
<linearGradient id="paint0_linear_50_342" x1="10.3403" y1="36.2715" x2="45.9294" y2="1.67967" gradientUnits="userSpaceOnUse">
<stop stop-color="#7A67FF"/>
<stop offset="1" stop-color="#10C8FF"/>
</linearGradient>
</defs>
</svg>
